<?xml version="1.0" encoding="utf-8"?>
<!-- Generator: Adobe Illustrator 22.0.1, SVG Export Plug-In . SVG Version: 6.00 Build 0)  -->
<svg version="1.1" id="Layer_1" xmlns="http://www.w3.org/2000/svg" xmlns:xlink="http://www.w3.org/1999/xlink" x="0px" y="0px"
	 viewBox="0 0 2000 2000" style="enable-background:new 0 0 2000 2000;" xml:space="preserve">
<style type="text/css">
	.st0{fill:#252525;}
	.st1{fill:#616264;}
	.st2{fill:#FFFFFF;}
	.st3{fill:#EBEBEB;}
</style>
<g id="Logo_artwork">
</g>
<g>
	<g id="XMLID_1_">
		<g>
			<path class="st0" d="M1791.4,102l-144.3,1616.6L999.6,1898l-646.9-179.6L208.6,102H1791.4z M1523.6,1615.6l123.4-1381.5H1000
				v198.3H503.5l53.4,599.5H1000v316.9l-0.3,0.1l-220.8-59.7L764.2,1124h-199l28.5,318.3l406.1,112.8l0.3-0.1v205.7L1523.6,1615.6z"
				/>
			<polygon class="st1" points="1646.9,234.1 1523.6,1615.6 1000,1760.7 1000,1555 1406.3,1442.3 1460.8,833.7 1000,833.7 
				1000,630.7 1478.2,630.7 1478.8,630.7 1496.5,432.4 1000,432.4 1000,234.1 			"/>
			<polygon class="st2" points="1496.5,432.4 1478.8,630.7 1478.2,630.7 1000,630.7 1000,432.4 			"/>
			<polygon class="st2" points="1460.8,833.7 1406.3,1442.3 1000,1555 1000,1555 1000,1348.8 1221,1289 1244.1,1031.9 1000,1031.9 
				1000,833.7 			"/>
			<polygon class="st0" points="1244.1,1031.9 1221,1289 1000,1348.8 1000,1348.8 1000,1031.9 			"/>
			<polygon class="st2" points="1000,1555 1000,1555 999.7,1555.1 			"/>
			<polygon class="st3" points="1000,1348.8 1000,1555 999.7,1555.1 593.6,1442.3 565.2,1124 764.2,1124 778.9,1289.1 999.7,1348.9 
							"/>
			<polygon class="st3" points="1000,1348.8 1000,1348.8 999.7,1348.9 			"/>
			<polygon class="st2" points="1000,833.7 1000,1031.9 556.9,1031.9 503.5,432.4 1000,432.4 1000,630.7 720.1,630.7 738.2,833.7 
							"/>
			<polygon class="st0" points="1000,630.7 1000,833.7 738.2,833.7 720.1,630.7 			"/>
		</g>
		<g>
		</g>
	</g>
</g>
</svg>
